PathFileType	4	(X/Y/Z)	49_2_rein_74_p0_0-285_filt_butterworth.trc
DataRate	CameraRate	NumFrames	NumMarkers	Units	OrigDataRate	OrigDataStartFrame	OrigNumFrames
60.0	60.0	5	27	m	60.0	213	285
Frame#	Time	RHip			RKnee			RAnkle			RBigToe			RSmallToe			RHeel			LHip			LKnee			LAnkle			LBigToe			LSmallToe			LHeel			Neck			Head			Nose			RShoulder			RElbow			RWrist			RThumb			RIndex			RPinky			LShoulder			LElbow			LWrist			LThumb			LIndex			LPinky			
		X1	Y1	Z1	X2	Y2	Z2	X3	Y3	Z3	X4	Y4	Z4	X5	Y5	Z5	X6	Y6	Z6	X7	Y7	Z7	X8	Y8	Z8	X9	Y9	Z9	X10	Y10	Z10	X11	Y11	Z11	X12	Y12	Z12	X13	Y13	Z13	X14	Y14	Z14	X15	Y15	Z15	X16	Y16	Z16	X17	Y17	Z17	X18	Y18	Z18	X19	Y19	Z19	X20	Y20	Z20	X21	Y21	Z21	X22	Y22	Z22	X23	Y23	Z23	X24	Y24	Z24	X25	Y25	Z25	X26	Y26	Z26	X27	Y27	Z27	
213	3.55	0.3401775166401517	0.5409315640643985	0.794289518586615	0.34835562626996064	0.8058470715830603	1.2013838868969784	0.3416260606187102	1.026884102269595	1.589829506103712	0.3061627154088815	0.8682618842746486	1.6728582081917667	0.36943797944975443	0.8636160815838351	1.6660506942852935	0.3201827332217626	1.153326434934456	1.6354301347427784	0.11809166491442363	0.6100461782842144	0.7922828635321487	0.13581903806083082	0.8633572399079676	1.1922986676512932	0.1656058289987454	1.0247827399885374	1.5725781210553156	0.16155973033929283	0.8677058530372326	1.6533263405272383	0.11402277024574309	0.8807201048592852	1.6453112902819658	0.18796654355974857	1.1209549196520756	1.632722545970573	0.24288211994360873	0.4799606959772166	0.17364454319819272	0.26867812363403265	0.3175292654344617	-0.05156021999995633	0.24231074213159642	0.3136917709238996	0.1266490017184064	0.38096662807192183	0.43868899341597956	0.2592358431996836	0.47972765349345875	0.2998957811159436	0.47066607115547837	0.3761398479689768	0.22023504071142985	0.2652414451802786	0.30489051876088985	0.23593741545277808	0.19071272080589616	0.32341577656125253	0.16924273084556232	0.18571070935373996	0.3491257080664299	0.1555282747046185	0.22085379790769963	0.10444324406368696	0.4992502606032142	0.24453747040633178	0.03165260346272935	0.35186610395598406	0.4451619788063401	0.12862258274112257	0.29391204103211876	0.2450728368438929	0.2099131120819913	0.28972412143396087	0.1928617336494521	0.20787432212463966	0.2872975985177372	0.15403128424052037	0.16195717998361914	0.2183507037413468	0.2045514289207123
214	3.566666666666667	0.34145237709242665	0.5420222361764919	0.7946374658215078	0.34876979835960137	0.8068634228288548	1.2023449518244167	0.34174337325314735	1.02689142960877	1.5899382005848075	0.30616012726268094	0.8682938533537823	1.6728910107158765	0.36955099808134034	0.8639409345803863	1.6665552498888772	0.32021363928114627	1.1537739283276172	1.6355132256444243	0.11806081473306124	0.6098836606551868	0.7925933624953817	0.13584202609341475	0.8634504785743117	1.1923576111145493	0.16560349655600382	1.0256335968539227	1.5743164537400371	0.161479987445543	0.8675281111496026	1.6529598494413151	0.11400960979024377	0.8848580729577697	1.6450726129706597	0.18727637925714163	1.1176713964928255	1.6335771035342668	0.24329237939717377	0.47854089178722575	0.1730548924768389	0.2686059047360437	0.31712599082110654	-0.0521746428498609	0.24140287875471536	0.3075555371982418	0.1269575672241098	0.38102565418688183	0.43873409541541764	0.25919592157364113	0.4775300614919656	0.2970842836224932	0.47381191307314424	0.3767906665942188	0.2173107184622865	0.26698308305330604	0.3031828410511489	0.230599846374687	0.19162934488125535	0.32212567316935586	0.15877083935621095	0.18950336625352268	0.3483121692112498	0.14914829713583475	0.22655348328975872	0.10455952010305647	0.49963626320998417	0.24478728015053658	0.03006200694454843	0.35338308519334016	0.4484330588666874	0.12861752797955397	0.29511459962552444	0.24928984495412004	0.21093423427686234	0.27818417594149103	0.19984462416387483	0.2071595533660302	0.2776022532063984	0.15879961289345373	0.16124749871048422	0.21484041946898733	0.20964108121296882
215	3.583333333333333	0.34213302957468833	0.5432276249878556	0.7955530310246366	0.34909336306898325	0.8082592560871735	1.2033121085277498	0.3423884590967032	1.0253352087544243	1.5902140514180716	0.30610584011087727	0.8683445224624056	1.6729927825622704	0.3697536952517654	0.8647450664788904	1.6679151204822076	0.3204057508980519	1.154763567641747	1.636185472825215	0.11845751935535485	0.6095882320498354	0.7935803508566025	0.13585470259042254	0.8635461556561729	1.1924236931116294	0.16586954006200605	1.02714518207251	1.5773221393221881	0.1611020766190757	0.8659315926520027	1.652926100334128	0.1129616165514531	0.8902960473285999	1.6447717202512195	0.18709102496336324	1.1161429569256625	1.6350086191518491	0.2436976044813327	0.4772280463942262	0.1730513385052605	0.268540524729255	0.3166055435301576	-0.0530358968242438	0.24045098485035638	0.3000223618950281	0.12786587391918522	0.3810903758186912	0.43887454717896446	0.2590554808933949	0.4755205060197789	0.295071208038526	0.47719496551914864	0.37763910457970884	0.21368055190576754	0.2692310186780581	0.3025401706298899	0.2284258404973311	0.19276389992945145	0.32046741418693053	0.150208681886554	0.19315499807303682	0.34757066789825913	0.14295206834074978	0.23386427271495464	0.10452834029974076	0.4985086200406012	0.24451171586374515	0.028316850056827377	0.3575349523268987	0.4528695870132933	0.1279150443063157	0.29617113900210373	0.25603849905562276	0.20935074413340599	0.2652670880346418	0.21042901261426972	0.20549933154160704	0.2624476883506869	0.16805734360846777	0.16051633416377556	0.2112961824116285	0.2178670889427831
216	3.6	0.34234210837121254	0.5440294285316511	0.7967430870305663	0.3493148521917389	0.809208151014628	1.2033916374429527	0.3436820024734828	1.0213780682282791	1.5905910911000527	0.3060284481830423	0.8683868616451366	1.673126679750135	0.3699885629140777	0.8658958593126478	1.669759325321429	0.32085495970175787	1.1555475913900664	1.6375615172230056	0.11950682185047742	0.6095879609890681	0.7948894398432816	0.13585359363730298	0.863629492426009	1.1924885306765243	0.16640813461708848	1.028734762271309	1.5804588160323563	0.16038547314473028	0.8626471667435008	1.6532370243173848	0.11101047943033995	0.8944149409515686	1.6444331618500623	0.18727877093983716	1.1158118202604248	1.6366523195958356	0.24382588802827876	0.47478956703913655	0.1743815425725247	0.26853127239785635	0.3162622253702899	-0.053591184503456915	0.23991546430618305	0.29477342405279006	0.12839895920946995	0.3811650901783217	0.438972014164464	0.25890665349631586	0.47392579602727763	0.29442356943262815	0.48035999837175897	0.3783524266089346	0.2114340690342637	0.2722943559372221	0.3038128735827573	0.23081739574584131	0.19437989914713144	0.32060376941274077	0.14733530693353022	0.1962613206638765	0.34776132845629487	0.14176612889720047	0.24085948857356265	0.10378236080815863	0.49402616466522054	0.24434206124598074	0.02677058007648072	0.3639126621113436	0.4587795520163259	0.12607163565832158	0.29675089588725	0.26498880821610704	0.20483413635380973	0.2560453305424975	0.2221840526609607	0.20358605888769454	0.2470054641925257	0.1804430487798191	0.1592216603447353	0.2080659994089316	0.2283907638130085
217	3.6166666666666663	0.34237448045252744	0.544301823184833	0.7976414698754415	0.34949027198601945	0.8095400460285599	1.2028698532266833	0.3451907968146765	1.0161949861464097	1.5908983340987146	0.30598238988493337	0.8684253066400084	1.6732029633129082	0.37016213646952334	0.8667904757476028	1.6711907793306207	0.32167418499691725	1.1539283603834962	1.6389213268469731	0.1209368968197922	0.6104645119054505	0.7958667034866483	0.1358482487518538	0.8636783593472199	1.1925404742854453	0.16693032313648287	1.0297031590556727	1.5824457567684198	0.15946081762848446	0.8582641001185355	1.6533280817710287	0.10926378337373327	0.8960827297443805	1.6441509846706708	0.18752344411785038	1.1159517271695811	1.63788531527701	0.24340395599426365	0.4720119214829748	0.1765011990243578	0.2685505079071932	0.3160683452117363	-0.05327894002937285	0.24002615494670715	0.29266146239391944	0.1280242223709031	0.3812974505918892	0.43855344922142003	0.2591225974080637	0.4730585087646362	0.29519649595677677	0.48330830685056164	0.37903287261121105	0.21160767539496572	0.27651371777838424	0.30626140153655923	0.23622114962372215	0.19770100753222186	0.32293377179895566	0.14869715515783616	0.20071962252212397	0.34902415968384043	0.14496508578306122	0.24698399969300433	0.10223390273672574	0.48685174431989825	0.24490157143926994	0.025171070069743128	0.37099448249293426	0.4658054163443535	0.12327565582283653	0.2980746730160369	0.27500170605657925	0.20010533492384613	0.25129844968766923	0.2324442498854517	0.20213087511175795	0.23646178794655337	0.19388802809901937	0.15739047846351872	0.20588874886125216	0.23987066573352023
